PathFileType	4	(X/Y/Z)	/Users/niels/Desktop/University/Third Semester/Perception and Action/Exam/Gymnastics Motion Tracking/Code for Gym Tracking/Analyzed Data/Webcam_Backflip/id19_5_trajectory_Sports2D/id19_5_trajectory_Sports2D_px_person00.trc
DataRate	CameraRate	NumFrames	NumMarkers	Units	OrigDataRate	OrigDataStartFrame	OrigNumFrames
29.714285714285715	29.714285714285715	8	22	m	29.714285714285715	39	105
Frame#	Time	Hip			RHip			RKnee			RAnkle			RBigToe			RSmallToe			RHeel			LHip			LKnee			LAnkle			LBigToe			LSmallToe			LHeel			Neck			Head			Nose			RShoulder			RElbow			RWrist			LShoulder			LElbow			LWrist		
		X1	Y1	Z1	X2	Y2	Z2	X3	Y3	Z3	X4	Y4	Z4	X5	Y5	Z5	X6	Y6	Z6	X7	Y7	Z7	X8	Y8	Z8	X9	Y9	Z9	X10	Y10	Z10	X11	Y11	Z11	X12	Y12	Z12	X13	Y13	Z13	X14	Y14	Z14	X15	Y15	Z15	X16	Y16	Z16	X17	Y17	Z17	X18	Y18	Z18	X19	Y19	Z19	X20	Y20	Z20	X21	Y21	Z21	X22	Y22	Z22
39	1.3125	0.8563747424987008	-0.535791031702071	0.0	0.8386045598991989	-0.5355344937453966	0.0	0.7755908582921205	-0.6615209756673667	0.0	0.7021001435570899	-0.7595677019128808	0.0	0.7158018534453962	-0.8168514897745309	0.0	0.7000342928203113	-0.8111833325312111	0.0	0.6824329389533849	-0.7637581641970952	0.0	0.8819895633561285	-0.5379906366435219	0.0	0.8162565227362202	-0.6664868978872062	0.0	0.7452233570092277	-0.7545776871809841	0.0	0.7232862311402297	-0.8100411056797173	0.0	0.7355561080556963	-0.8079783296904638	0.0	0.7248078455262426	-0.761262211411675	0.0	0.9687759979250699	-0.581751355590694	0.0	1.0538934315150685	-0.6160756569226681	0.0	1.0085338377789483	-0.6277087458146088	0.0	0.9270540979789251	-0.5823974639764362	0.0	0.8789663292636503	-0.6603019720196436	0.0	0.8949796561858836	-0.7414235518041454	0.0	0.9930180018431026	-0.5695779609326302	0.0	1.0224294625365151	-0.6392352119538603	0.0	1.0627013299975785	-0.6965767595072685	0.0
40	1.346153846153846	0.8390890257460415	-0.5912948412279438	0.0	0.8213127446734029	-0.5900277168080005	0.0	0.7765243726346508	-0.7271929813971352	0.0	0.7185552855942476	-0.8436360140278308	0.0	0.7381868997011307	-0.8938279028003115	0.0	0.7228756115798526	-0.8916015461069998	0.0	0.7008495562911984	-0.8526696222703589	0.0	0.8634131703763174	-0.5967742184737468	0.0	0.8175359792582835	-0.7329052893564054	0.0	0.7569720968247285	-0.8399713011617065	0.0	0.7553728280500328	-0.8897838244565508	0.0	0.7650678931508723	-0.8843505730742918	0.0	0.7380626323305263	-0.8514955784832069	0.0	0.9579246163343424	-0.5994451540448195	0.0	1.0489112542954215	-0.615722077506346	0.0	1.0033246918258387	-0.6360367105663939	0.0	0.9166755894773349	-0.6034735431802141	0.0	0.8898171981666759	-0.6870153537681412	0.0	0.9258416598046157	-0.7596373553973933	0.0	0.9830260457822524	-0.5882529386748483	0.0	1.023257512581515	-0.6578082857273242	0.0	1.0735208232469142	-0.704626857297061	0.0
41	1.3798076923076923	0.8244525747087572	-0.651625961373477	0.0	0.8060193061856885	-0.6495602289063458	0.0	0.778056075728682	-0.792898282812833	0.0	0.7335126769284729	-0.9183985315787876	0.0	0.7523993581749773	-0.9598562971091553	0.0	0.7394980444908985	-0.9613674272079238	0.0	0.7177333004329608	-0.9294830908057541	0.0	0.8479136562368715	-0.6597627510970767	0.0	0.8216677418451457	-0.7961643396400999	0.0	0.7712560812792001	-0.9138580229802269	0.0	0.7850329960838991	-0.9581133160457824	0.0	0.7909255408374929	-0.9507401113442473	0.0	0.7547200523529736	-0.9276362912222107	0.0	0.9437680437990972	-0.6222853895544205	0.0	1.0364966285054875	-0.6196016156345239	0.0	0.9922198334136771	-0.6490198858451458	0.0	0.9038563267789385	-0.6277511924953997	0.0	0.8960824741727715	-0.7111268591112924	0.0	0.9501846995485971	-0.7709879105842128	0.0	0.9710523713786932	-0.6129637192664148	0.0	1.0204460033652991	-0.6772096381437908	0.0	1.0762312248406698	-0.7087102754638721	0.0
42	1.4134615384615383	0.8129713020674473	-0.7113661263999271	0.0	0.7933014912114488	-0.7085747380200267	0.0	0.7795751692791372	-0.8537131987044482	0.0	0.7438572226935778	-0.9791769374189481	0.0	0.7562098613382011	-1.0129056408289068	0.0	0.7472809893734528	-1.0180308188344807	0.0	0.7291946602424123	-0.9896376405462397	0.0	0.8361444655074957	-0.7209353404464971	0.0	0.8268349493853867	-0.8531390874628308	0.0	0.7833391461514462	-0.9729064383662231	0.0	0.8085505062829293	-1.013348505464284	0.0	0.8098217969563318	-1.0045625008668355	0.0	0.7692594112066545	-0.9868188767503142	0.0	0.9287244704308548	-0.6485368811136608	0.0	1.0190541363824066	-0.627577347606742	0.0	0.9779338119191826	-0.6656970075447523	0.0	0.8903802736335213	-0.6531868304446755	0.0	0.896725649761432	-0.7335065763909818	0.0	0.9647396376977806	-0.7795518057351769	0.0	0.9588603121274234	-0.6421578371515364	0.0	1.0150363507098494	-0.6986886295855761	0.0	1.0713752084546773	-0.7128913184762441	0.0
43	1.4471153846153846	0.8044943758580685	-0.764034561875024	0.0	0.7832999706373439	-0.7605506895991302	0.0	0.7812669110691106	-0.9041560159097768	0.0	0.749069389686958	-1.0225210460752097	0.0	0.7523559504750991	-1.0515805872829487	0.0	0.7477618649958212	-1.059807043535467	0.0	0.7342902138194098	-1.03061060498455	0.0	0.8280514314259113	-0.7739652623929683	0.0	0.8321091641499125	-0.8997075709168321	0.0	0.7909955269070317	-1.0144668549330293	0.0	0.8239622499570505	-1.05358033226676	0.0	0.8205253644540916	-1.043064399989272	0.0	0.778780372940698	-1.027336339271782	0.0	0.9150811445472963	-0.6754089069891777	0.0	0.9998615429297066	-0.6386282586090746	0.0	0.9634248598287436	-0.6840652507219357	0.0	0.8776851118704764	-0.6774566370917188	0.0	0.8914566865289459	-0.7547207935695892	0.0	0.9670948892720198	-0.7899793768401917	0.0	0.9478771305843884	-0.6729732324312945	0.0	1.0078651415882909	-0.7223889293865264	0.0	1.0609619026139598	-0.7216146687267107	0.0
44	1.4807692307692306	0.7986182582006291	-0.8040349717623757	0.0	0.7759248427247016	-0.7998760981144107	0.0	0.7842366847042443	-0.9395964495810244	0.0	0.7507044263553595	-1.0472772234121135	0.0	0.7472662450468137	-1.075169445078104	0.0	0.7456763174477041	-1.0858954703323116	0.0	0.7347263900686715	-1.0525710374003663	0.0	0.8233138212762839	-0.813691685289537	0.0	0.8380195522473598	-0.9317570807423832	0.0	0.7946517003725511	-1.0372807718697359	0.0	0.8311449476669546	-1.0772698678646695	0.0	0.8237199191148497	-1.0641248503509948	0.0	0.7833509972715285	-1.0487876579111575	0.0	0.9044956480288815	-0.6993944536995755	0.0	0.9826254606109319	-0.6510980380971065	0.0	0.9514206672911729	-0.701650558576917	0.0	0.8667209548281349	-0.6982727559854103	0.0	0.8806958731837513	-0.7743664914746397	0.0	0.9561768780104074	-0.8056188568478259	0.0	0.938955881904822	-0.7016092808412923	0.0	0.9989543924025585	-0.7468756943811329	0.0	1.0475241787964844	-0.7382035346365923	0.0
45	1.5144230769230769	0.7951808255621654	-0.8280124801553932	0.0	0.771317281399243	-0.8233441752277696	0.0	0.7899161719649235	-0.9574211434426797	0.0	0.7510429652593197	-1.0542860458692944	0.0	0.747028616764671	-1.08332556056021	0.0	0.7457146449426687	-1.0960758542506872	0.0	0.7333954731743008	-1.0574228693173826	0.0	0.8217385908165648	-0.8370721665421184	0.0	0.8458767298428795	-0.9464701841593973	0.0	0.7961647974104181	-1.0415973955851536	0.0	0.8318229025298582	-1.0836639797306717	0.0	0.8216735984108002	-1.0670604097656882	0.0	0.7848212238915017	-1.051667628074326	0.0	0.8978706761815143	-0.7170459987129023	0.0	0.9705564519193909	-0.6627683800375613	0.0	0.9438768801191393	-0.7159601252618647	0.0	0.8582107918928606	-0.7134191435198335	0.0	0.8654879934638935	-0.7906170052145889	0.0	0.9324388662493079	-0.8263918439613643	0.0	0.9324146336564468	-0.7240427959414609	0.0	0.9877278301358786	-0.7691867014789984	0.0	1.0327047312750794	-0.7628695808352509	0.0
46	1.548076923076923	0.7944234262687425	-0.8353975241731431	0.0	0.7698825033414548	-0.8306609381449386	0.0	0.7990904300371695	-0.95770777710511	0.0	0.7519348425789637	-1.045317207609665	0.0	0.7530125343257676	-1.0764528299509335	0.0	0.7491513695376109	-1.090383669001782	0.0	0.7328925832468479	-1.0472654040347216	0.0	0.8233441777056708	-0.8437060815332117	0.0	0.856600627285157	-0.9434945463815863	0.0	0.7976860744345804	-1.0290330312503884	0.0	0.8291682104857623	-1.0731943299478885	0.0	0.817866382040404	-1.0534671815025283	0.0	0.7856034140811943	-1.037608448393959	0.0	0.8954925262069363	-0.7259839374788234	0.0	0.9653227622146502	-0.6712011015860728	0.0	0.9415528045970276	-0.7249254606808953	0.0	0.8527927431687735	-0.7210088308165468	0.0	0.8473888898812946	-0.8004657445548421	0.0	0.8981828050171914	-0.8478208768365234	0.0	0.9283442824241728	-0.7371537629259667	0.0	0.9738501822627705	-0.7855582891374433	0.0	1.0163404339498625	-0.7914471222776939	0.0
